<svg width="330" height="132" viewBox="0 0 330 132" fill="none" xmlns="http://www.w3.org/2000/svg">
<path d="M30.4917 19.2614C30.4917 18.652 29.9368 18.097 28.8268 17.5964C27.7386 17.0958 26.0627 16.8455 23.7992 16.8455C22.2322 16.8455 20.9916 16.9544 20.0775 17.172C19.1634 17.3897 18.467 17.6835 17.9882 18.0535C17.5311 18.4017 17.2373 18.8043 17.1067 19.2614C16.9761 19.6967 16.9108 20.1428 16.9108 20.5999C16.9108 21.5357 17.3461 22.3628 18.2167 23.081C19.109 23.7775 20.2734 24.4413 21.7099 25.0724C23.1681 25.7036 24.8221 26.3348 26.6721 26.9659C28.5221 27.5971 30.4156 28.3044 32.3526 29.0879C34.2896 29.8497 36.1831 30.7311 38.0331 31.7323C39.883 32.7335 41.5262 33.9087 42.9627 35.2581C44.4209 36.6075 45.5853 38.1854 46.4558 39.9918C47.3482 41.7983 47.7943 43.8876 47.7943 46.26C47.7943 49.3069 47.2067 51.8643 46.0314 53.9319C44.8562 55.9995 43.213 57.6644 41.1018 58.9268C39.0125 60.1891 36.5204 61.0923 33.6258 61.6364C30.7529 62.1805 27.608 62.4526 24.191 62.4526C22.1887 62.4526 20.1972 62.3002 18.2167 61.9955C16.2361 61.6908 14.3535 61.2555 12.5689 60.6897C10.7842 60.102 9.11923 59.3947 7.57397 58.5676C6.05047 57.7188 4.72285 56.7721 3.5911 55.7274C2.48113 54.661 1.59967 53.4966 0.946746 52.2342C0.315582 50.9502 0 49.579 0 48.1208C0 47.0108 0.174114 46.0423 0.522342 45.2153C0.870571 44.3882 1.32762 43.7135 1.89349 43.1912C2.48113 42.6471 3.14494 42.2444 3.88492 41.9833C4.62491 41.7221 5.39754 41.5915 6.20282 41.5915C7.18221 41.5915 8.1616 41.7765 9.14099 42.1465C10.1204 42.5165 11.0018 43.0606 11.7854 43.7788C12.5689 44.497 13.2 45.3785 13.6788 46.4232C14.1794 47.4679 14.4297 48.6649 14.4297 50.0143C14.4297 50.3408 14.5821 50.689 14.8868 51.059C15.2132 51.429 15.6703 51.7772 16.2579 52.1037C16.8673 52.4084 17.6182 52.6695 18.5105 52.8872C19.4028 53.1048 20.4258 53.2136 21.5793 53.2136C23.1898 53.2136 24.4739 53.1157 25.4315 52.9198C26.3892 52.7022 27.1183 52.4192 27.6189 52.071C28.1412 51.7228 28.4785 51.331 28.6309 50.8957C28.7832 50.4605 28.8594 50.0252 28.8594 49.5899C28.8594 49.0458 28.4568 48.567 27.6515 48.1534C26.8462 47.7399 25.7907 47.3264 24.4848 46.9129C23.1789 46.4776 21.6772 46.0205 19.9796 45.5417C18.3037 45.0629 16.5953 44.497 14.8541 43.8441C13.113 43.1694 11.3936 42.375 9.69598 41.4609C8.02013 40.5468 6.52928 39.4477 5.22342 38.1636C3.91757 36.8578 2.862 35.3452 2.05672 33.6258C1.25145 31.8847 0.848807 29.8606 0.848807 27.5536C0.848807 25.2683 1.12086 23.2225 1.66497 21.416C2.23084 19.6096 3.01435 18.0099 4.01551 16.617C5.03843 15.2241 6.25723 14.038 7.6719 13.0586C9.08658 12.0574 10.6536 11.2412 12.373 10.6101C14.1141 9.95715 15.975 9.48922 17.9555 9.20629C19.9578 8.90159 22.0363 8.74924 24.191 8.74924C28.0433 8.74924 31.3188 9.14099 34.0176 9.92451C36.7381 10.6863 38.9472 11.6765 40.6448 12.8953C42.3424 14.1141 43.5721 15.4744 44.3338 16.9761C45.1173 18.4561 45.5091 19.9034 45.5091 21.3181C45.5091 22.6022 45.237 23.7122 44.6929 24.648C44.1488 25.5839 43.4415 26.3565 42.5709 26.9659C41.7003 27.5753 40.7101 28.0215 39.6001 28.3044C38.4901 28.5874 37.3692 28.7288 36.2375 28.7288C35.1493 28.7288 34.0828 28.6091 33.0382 28.3697C32.0152 28.1303 31.1011 27.7712 30.2959 27.2924C29.5123 26.8136 28.8703 26.2368 28.3697 25.5621C27.8909 24.8657 27.6515 24.0713 27.6515 23.1789C27.6515 22.526 27.793 22.0363 28.0759 21.7099C28.3806 21.3834 28.7071 21.1113 29.0553 20.8937C29.4253 20.6761 29.7518 20.4584 30.0347 20.2408C30.3394 20.0231 30.4917 19.6967 30.4917 19.2614Z" fill="#131313"/>
<path d="M75.1834 45.3785C75.1834 46.0967 75.2051 46.7932 75.2486 47.4679C75.2922 48.1208 75.4228 48.7084 75.6404 49.2308C75.858 49.7531 76.1954 50.1666 76.6524 50.4713C77.1095 50.776 77.7407 50.9284 78.5459 50.9284C79.6777 50.9284 80.6571 50.7869 81.4841 50.504C82.3329 50.1993 83.2035 49.8075 84.0958 49.3287C84.4441 49.1328 84.7705 49.0349 85.0752 49.0349C85.5758 49.0349 85.9676 49.2525 86.2505 49.6878C86.5552 50.1231 86.7075 50.6128 86.7075 51.1569C86.7075 51.5269 86.6531 51.8316 86.5443 52.071C85.9131 53.6816 85.097 55.1289 84.0958 56.413C83.1164 57.6971 81.9738 58.7853 80.668 59.6776C79.3839 60.57 77.9692 61.2555 76.4239 61.7343C74.8787 62.2132 73.2246 62.4526 71.4617 62.4526C69.0241 62.4526 66.9347 62.1479 65.1936 61.5385C63.4524 60.9073 61.9833 60.0803 60.7863 59.0573C59.5893 58.0127 58.6316 56.8156 57.9134 55.4662C57.1952 54.0951 56.6402 52.6695 56.2484 51.1896C55.8785 49.6878 55.6282 48.1861 55.4976 46.6844C55.3888 45.1609 55.3343 43.7244 55.3343 42.375V25.856H53.7347C52.9294 25.856 52.2982 25.6274 51.8412 25.1704C51.3841 24.6916 51.1556 24.1692 51.1556 23.6033C51.1556 22.9287 51.4603 22.3628 52.0697 21.9057C54.6161 20.0775 56.9449 18.3146 59.056 16.617C61.1672 14.8976 62.9845 13.3633 64.508 12.0139C66.2927 10.4468 67.8923 8.97776 69.307 7.60661C69.8729 7.04074 70.4496 6.62722 71.0373 6.36605C71.6249 6.08311 72.1908 5.94165 72.7349 5.94165C73.4096 5.94165 73.9754 6.17017 74.4325 6.62722C74.8895 7.08427 75.1181 7.79161 75.1181 8.74924V19.3267H83.0838C83.345 19.3267 83.6497 19.3484 83.9979 19.392C84.3679 19.4137 84.7161 19.5225 85.0426 19.7184C85.369 19.9143 85.6411 20.2299 85.8587 20.6652C86.0981 21.0787 86.2178 21.6772 86.2178 22.4607C86.2178 23.3095 86.109 23.9625 85.8914 24.4195C85.6737 24.8766 85.4017 25.2139 85.0752 25.4315C84.7488 25.6492 84.4005 25.7798 84.0305 25.8233C83.6823 25.8451 83.3667 25.856 83.0838 25.856H75.1181L75.1834 45.3785Z" fill="#131313"/>
<path d="M94.9005 8.09631C94.9005 7.00809 95.0855 6.06135 95.4555 5.25607C95.8472 4.42903 96.3369 3.72169 96.9246 3.13405C97.534 2.52466 98.2195 2.02408 98.9813 1.63232C99.7648 1.2188 100.548 0.892335 101.332 0.652928C102.115 0.413521 102.866 0.250289 103.584 0.163232C104.324 0.0544107 104.966 0 105.511 0C106.098 0 106.762 0.0544107 107.502 0.163232C108.264 0.250289 109.036 0.413521 109.82 0.652928C110.603 0.892335 111.376 1.2188 112.138 1.63232C112.9 2.02408 113.574 2.52466 114.162 3.13405C114.771 3.72169 115.25 4.42903 115.598 5.25607C115.968 6.06135 116.153 7.00809 116.153 8.09631C116.153 9.16276 115.968 10.1095 115.598 10.9365C115.25 11.7636 114.771 12.4709 114.162 13.0586C113.574 13.6462 112.9 14.1468 112.138 14.5603C111.376 14.9521 110.603 15.2676 109.82 15.507C109.036 15.7464 108.264 15.9206 107.502 16.0294C106.762 16.1164 106.098 16.16 105.511 16.16C104.966 16.16 104.324 16.1164 103.584 16.0294C102.866 15.9206 102.115 15.7464 101.332 15.507C100.548 15.2676 99.7648 14.9521 98.9813 14.5603C98.2195 14.1468 97.534 13.6462 96.9246 13.0586C96.3369 12.4709 95.8472 11.7745 95.4555 10.9692C95.0855 10.1421 94.9005 9.18452 94.9005 8.09631ZM115.141 49.1981C115.141 50.0687 115.261 50.7434 115.5 51.2222C115.74 51.701 116.034 52.071 116.382 52.3322C116.752 52.5716 117.144 52.7348 117.557 52.8219C117.971 52.9089 118.351 53.0069 118.7 53.1157C119.07 53.2245 119.374 53.3877 119.614 53.6054C119.853 53.8013 119.973 54.1386 119.973 54.6174C119.973 57.0986 118.689 58.8941 116.121 60.0041C113.552 61.0923 109.842 61.6364 104.988 61.6364C102.638 61.6364 100.559 61.5058 98.7528 61.2447C96.9463 60.9835 95.4228 60.57 94.1823 60.0041C92.9417 59.4165 91.9949 58.6874 91.342 57.8168C90.7109 56.9244 90.3953 55.858 90.3953 54.6174C90.3953 54.1386 90.515 53.8013 90.7544 53.6054C90.9938 53.3877 91.2876 53.2245 91.6358 53.1157C91.9841 53.0069 92.3649 52.9089 92.7785 52.8219C93.192 52.7348 93.5729 52.5716 93.9211 52.3322C94.2693 52.071 94.5631 51.7119 94.8025 51.2549C95.0419 50.776 95.1617 50.0905 95.1617 49.1981V31.7649C95.1617 30.8944 95.0419 30.2197 94.8025 29.7409C94.5631 29.2621 94.2693 28.9029 93.9211 28.6635C93.5729 28.4024 93.192 28.2283 92.7785 28.1412C92.3649 28.0541 91.9841 27.9562 91.6358 27.8474C91.2876 27.7386 90.9938 27.5862 90.7544 27.3903C90.515 27.1727 90.3953 26.8245 90.3953 26.3456C90.3953 25.1051 90.7109 24.0495 91.342 23.1789C91.9949 22.2866 92.9417 21.5575 94.1823 20.9916C95.4228 20.404 96.9463 19.9796 98.7528 19.7184C100.559 19.4573 102.638 19.3267 104.988 19.3267C107.339 19.3267 109.189 19.4464 110.538 19.6858C111.887 19.9252 112.9 20.3387 113.574 20.9263C114.271 21.4922 114.706 22.2648 114.88 23.2442C115.054 24.2236 115.141 25.4533 115.141 26.9333V49.1981Z" fill="#131313"/>
<path d="M146.023 18.3799C147.046 18.3799 148.058 18.5323 149.06 18.837C150.061 19.1199 150.953 19.4355 151.737 19.7837C152.651 20.1972 153.532 20.6652 154.381 21.1875C154.12 20.2517 153.924 19.3376 153.793 18.4452C153.684 17.5311 153.63 16.6605 153.63 15.8335C153.63 13.3089 154.12 11.0889 155.099 9.17364C156.1 7.23662 157.428 5.62606 159.082 4.34197C160.736 3.03612 162.619 2.05672 164.73 1.4038C166.841 0.729103 169.028 0.391757 171.292 0.391757C172.968 0.391757 174.622 0.576753 176.254 0.946746C177.886 1.29497 179.432 1.83908 180.89 2.57907C182.348 3.29729 183.697 4.21139 184.938 5.32136C186.2 6.40958 187.278 7.69367 188.17 9.17364C189.084 10.6318 189.791 12.2968 190.292 14.1685C190.814 16.0403 191.075 18.097 191.075 20.3387V37.8372C191.598 37.8372 192 37.8263 192.283 37.8045C192.588 37.761 192.838 37.7066 193.034 37.6413C193.252 37.5542 193.448 37.4454 193.622 37.3148C193.796 37.1625 194.025 36.9775 194.307 36.7598L202.436 30.4917C202.915 30.1217 203.231 29.7844 203.383 29.4797C203.557 29.175 203.644 28.9029 203.644 28.6635C203.644 28.3588 203.459 28.065 203.089 27.7821C202.719 27.4992 202.306 27.2053 201.849 26.9006C201.392 26.5959 200.978 26.2804 200.608 25.9539C200.238 25.6057 200.053 25.2248 200.053 24.8113C200.053 23.6578 200.391 22.7219 201.065 22.0037C201.762 21.2855 202.643 20.7305 203.71 20.3387C204.798 19.947 205.995 19.6858 207.301 19.5552C208.607 19.4028 209.869 19.3267 211.088 19.3267C212.938 19.3267 214.505 19.4246 215.789 19.6205C217.095 19.8164 218.15 20.1428 218.956 20.5999C219.761 21.0352 220.338 21.601 220.686 22.2975C221.056 22.9939 221.241 23.8319 221.241 24.8113C221.241 25.4424 221.11 25.9321 220.849 26.2804C220.588 26.6286 220.229 26.9115 219.772 27.1292C219.315 27.3468 218.781 27.5318 218.172 27.6841C217.584 27.8365 216.942 28.0215 216.246 28.2391C215.549 28.4568 214.831 28.7397 214.091 29.0879C213.373 29.4144 212.655 29.8823 211.937 30.4917L207.072 34.6378L217.291 49.6552C217.791 50.4169 218.335 50.9828 218.923 51.3528C219.532 51.701 220.131 51.9622 220.718 52.1363C221.306 52.2887 221.872 52.3975 222.416 52.4628C222.96 52.5063 223.439 52.5825 223.852 52.6913C224.288 52.8001 224.625 52.9851 224.865 53.2463C225.126 53.4857 225.256 53.8992 225.256 54.4868C225.256 55.7709 224.984 56.87 224.44 57.7841C223.896 58.6982 223.091 59.4382 222.024 60.0041C220.958 60.57 219.63 60.9835 218.041 61.2447C216.453 61.5058 214.624 61.6364 212.557 61.6364C210.163 61.6364 208.247 61.5167 206.811 61.2773C205.375 61.0161 204.254 60.6679 203.448 60.2326C202.643 59.7756 202.066 59.2423 201.718 58.6329C201.392 58.0235 201.12 57.3488 200.902 56.6089C200.706 55.8471 200.499 55.0527 200.282 54.2257C200.064 53.3769 199.672 52.5063 199.106 51.614L194.307 44.04C194.242 43.9529 194.155 43.855 194.046 43.7462C193.937 43.6374 193.763 43.5394 193.524 43.4524C193.306 43.3435 193.002 43.2674 192.61 43.2238C192.218 43.1585 191.707 43.1259 191.075 43.1259V49.0675C191.075 49.9599 191.195 50.6563 191.435 51.1569C191.674 51.6575 191.968 52.0384 192.316 52.2995C192.686 52.5389 193.078 52.7131 193.491 52.8219C193.905 52.9089 194.286 53.0069 194.634 53.1157C195.004 53.2245 195.309 53.3877 195.548 53.6054C195.787 53.8013 195.907 54.1386 195.907 54.6174C195.907 57.0986 194.623 58.8941 192.055 60.0041C189.487 61.0923 185.776 61.6364 180.922 61.6364C178.572 61.6364 176.493 61.5058 174.687 61.2447C172.881 60.9835 171.357 60.57 170.116 60.0041C168.876 59.4165 167.929 58.6874 167.276 57.8168C166.645 56.9244 166.329 55.858 166.329 54.6174C166.329 54.1386 166.449 53.8013 166.689 53.6054C166.928 53.3877 167.222 53.2245 167.57 53.1157C167.918 53.0069 168.299 52.9089 168.713 52.8219C169.126 52.7348 169.507 52.5716 169.855 52.3322C170.204 52.071 170.497 51.7119 170.737 51.2549C170.976 50.776 171.096 50.0905 171.096 49.1981V23.1137C171.096 21.786 170.976 20.6434 170.737 19.6858C170.519 18.7282 170.214 17.9446 169.823 17.3352C169.431 16.7258 168.985 16.2797 168.484 15.9967C167.984 15.7138 167.472 15.5723 166.95 15.5723C166.362 15.5723 165.775 15.7356 165.187 16.062C164.599 16.3667 164.077 16.8129 163.62 17.4005C163.163 17.9882 162.782 18.6955 162.477 19.5225C162.194 20.3278 162.053 21.2202 162.053 22.1996C162.053 22.9395 162.162 23.7013 162.379 24.4848C162.619 25.2466 162.869 26.0301 163.13 26.8353C163.391 27.6406 163.631 28.4677 163.848 29.3165C164.088 30.1435 164.207 30.9814 164.207 31.8302C164.207 32.592 164.088 33.2667 163.848 33.8543C163.609 34.442 163.283 34.9425 162.869 35.3561C162.477 35.7696 161.998 36.0852 161.433 36.3028C160.867 36.5204 160.257 36.6293 159.604 36.6293C158.451 36.6293 157.526 36.3899 156.829 35.911C156.155 35.4105 155.6 34.8011 155.164 34.0828C154.729 33.3429 154.359 32.5485 154.054 31.6997C153.75 30.8291 153.391 30.0347 152.977 29.3165C152.564 28.5765 152.041 27.9671 151.41 27.4883C150.779 26.9877 149.919 26.7374 148.831 26.7374C147.895 26.7374 147.079 26.9333 146.383 27.325C145.708 27.7168 145.142 28.2935 144.685 29.0553C144.228 29.7953 143.891 30.7094 143.673 31.7976C143.455 32.864 143.346 34.072 143.346 35.4213C143.346 40.6448 144.13 44.5188 145.697 47.0435C147.286 49.5464 149.821 50.7978 153.304 50.7978C154.305 50.7978 155.328 50.6672 156.372 50.406C157.417 50.1231 158.386 49.8184 159.278 49.4919C160.17 49.1655 160.943 48.8717 161.596 48.6105C162.249 48.3276 162.695 48.1861 162.934 48.1861C163.435 48.1861 163.827 48.4037 164.11 48.839C164.392 49.2525 164.534 49.7314 164.534 50.2755C164.534 50.4496 164.523 50.6128 164.501 50.7652C164.501 50.9175 164.469 51.0699 164.403 51.2222C163.772 52.8328 162.88 54.3236 161.726 55.6948C160.573 57.0441 159.191 58.2303 157.58 59.2532C155.991 60.2544 154.185 61.0379 152.161 61.6038C150.137 62.1696 147.939 62.4526 145.566 62.4526C143.129 62.4526 140.898 62.1696 138.874 61.6038C136.85 61.0161 135.022 60.2108 133.389 59.1879C131.779 58.1432 130.364 56.9244 129.145 55.5315C127.948 54.1386 126.936 52.626 126.109 50.9937C125.304 49.3396 124.694 47.6202 124.281 45.8355C123.889 44.0291 123.693 42.2118 123.693 40.3836C123.693 38.5336 123.9 36.7054 124.314 34.899C124.727 33.0708 125.347 31.3405 126.174 29.7082C127.001 28.0759 128.035 26.5742 129.276 25.203C130.516 23.8101 131.964 22.6131 133.618 21.6119C135.272 20.589 137.133 19.7946 139.2 19.2287C141.268 18.6629 143.542 18.3799 146.023 18.3799Z" fill="#131313"/>
<path d="M251.307 26.7374C250.61 26.7374 249.957 26.9006 249.348 27.2271C248.739 27.5318 248.205 28.0106 247.748 28.6635C247.313 29.3165 246.965 30.1544 246.704 31.1773C246.464 32.1785 246.345 33.3755 246.345 34.7684H256.759C256.759 33.2449 256.639 31.9717 256.4 30.9488C256.16 29.9041 255.812 29.0771 255.355 28.4677C254.898 27.8365 254.321 27.3903 253.625 27.1292C252.95 26.868 252.177 26.7374 251.307 26.7374ZM248.891 18.3799C251.807 18.3799 254.43 18.8152 256.759 19.6858C259.109 20.5564 261.101 21.7534 262.733 23.2769C264.387 24.8004 265.649 26.5959 266.52 28.6635C267.412 30.7094 267.859 32.9185 267.859 35.2908C267.859 36.2702 267.717 37.0319 267.434 37.576C267.173 38.1201 266.792 38.5228 266.291 38.7839C265.791 39.0451 265.171 39.2083 264.431 39.2736C263.691 39.3389 262.853 39.3716 261.917 39.3716H246.214C246.214 41.7656 246.453 43.7135 246.932 45.2153C247.433 46.6952 248.118 47.8487 248.989 48.6758C249.859 49.5028 250.904 50.0687 252.123 50.3734C253.342 50.6563 254.691 50.7978 256.171 50.7978C256.955 50.7978 257.76 50.7216 258.587 50.5693C259.436 50.4169 260.241 50.2211 261.003 49.9816C261.786 49.7422 262.504 49.4919 263.157 49.2308C263.81 48.9696 264.354 48.7193 264.79 48.4799C265.138 48.284 265.475 48.1861 265.802 48.1861C266.302 48.1861 266.694 48.4037 266.977 48.839C267.26 49.2525 267.401 49.7205 267.401 50.2428C267.401 50.4169 267.391 50.5802 267.369 50.7325C267.347 50.8849 267.303 51.0372 267.238 51.1896C266.607 52.8001 265.747 54.291 264.659 55.6621C263.571 57.0333 262.243 58.2303 260.676 59.2532C259.131 60.2544 257.335 61.0379 255.29 61.6038C253.244 62.1696 250.948 62.4526 248.401 62.4526C245.964 62.4526 243.733 62.1696 241.709 61.6038C239.706 61.0161 237.889 60.2108 236.257 59.1879C234.646 58.1432 233.232 56.9244 232.013 55.5315C230.794 54.1386 229.782 52.626 228.977 50.9937C228.171 49.3396 227.562 47.6202 227.148 45.8355C226.757 44.0291 226.561 42.2118 226.561 40.3836C226.561 38.5336 226.768 36.7054 227.181 34.899C227.595 33.0708 228.215 31.3405 229.042 29.7082C229.869 28.0759 230.903 26.5742 232.143 25.203C233.384 23.8101 234.831 22.6131 236.485 21.6119C238.139 20.589 240 19.7946 242.068 19.2287C244.135 18.6629 246.41 18.3799 248.891 18.3799Z" fill="#131313"/>
<path d="M295.868 49.0675C295.868 49.9599 295.988 50.6563 296.227 51.1569C296.466 51.6575 296.76 52.0384 297.108 52.2995C297.478 52.5389 297.87 52.7131 298.284 52.8219C298.697 52.9089 299.078 53.0069 299.426 53.1157C299.796 53.2245 300.101 53.3877 300.34 53.6054C300.58 53.8013 300.7 54.1386 300.7 54.6174C300.7 57.0986 299.415 58.8941 296.847 60.0041C294.279 61.0923 290.568 61.6364 285.715 61.6364C283.364 61.6364 281.286 61.5058 279.479 61.2447C277.673 60.9835 276.149 60.57 274.909 60.0041C273.668 59.4165 272.722 58.6874 272.069 57.8168C271.437 56.9244 271.122 55.858 271.122 54.6174C271.122 54.1386 271.242 53.8013 271.481 53.6054C271.72 53.3877 272.014 53.2245 272.362 53.1157C272.711 53.0069 273.092 52.9089 273.505 52.8219C273.919 52.7348 274.299 52.5716 274.648 52.3322C274.996 52.071 275.29 51.7119 275.529 51.2549C275.769 50.776 275.888 50.0905 275.888 49.1981V31.7649C275.888 30.8944 275.769 30.2197 275.529 29.7409C275.29 29.2621 274.996 28.9029 274.648 28.6635C274.299 28.4024 273.919 28.2283 273.505 28.1412C273.092 28.0541 272.711 27.9562 272.362 27.8474C272.014 27.7386 271.72 27.5862 271.481 27.3903C271.242 27.1727 271.122 26.8245 271.122 26.3456C271.122 25.1051 271.437 24.0495 272.069 23.1789C272.722 22.2866 273.668 21.5575 274.909 20.9916C276.149 20.404 277.673 19.9796 279.479 19.7184C281.286 19.4573 283.364 19.3267 285.715 19.3267C287.869 19.3267 289.589 19.5443 290.873 19.9796C292.179 20.3931 293.202 21.0134 293.942 21.8404C294.551 21.4487 295.182 21.0787 295.835 20.7305C296.488 20.3605 297.185 20.0449 297.925 19.7837C298.665 19.5008 299.47 19.2831 300.34 19.1308C301.211 18.9784 302.169 18.9023 303.213 18.9023C304.519 18.9023 305.771 19.0437 306.968 19.3267C308.186 19.5878 309.264 20.034 310.2 20.6652C311.135 21.2746 311.875 22.0799 312.42 23.081C312.985 24.0604 313.268 25.2792 313.268 26.7374C313.268 27.695 313.105 28.6309 312.779 29.545C312.452 30.4591 311.963 31.2753 311.31 31.9935C310.678 32.6899 309.873 33.2558 308.894 33.6911C307.936 34.1264 306.826 34.344 305.564 34.344C304.301 34.344 303.311 34.159 302.593 33.789C301.875 33.419 301.32 32.962 300.928 32.4179C300.536 31.8738 300.242 31.2861 300.047 30.655C299.872 30.002 299.677 29.4035 299.459 28.8594C299.263 28.3153 298.991 27.8583 298.643 27.4883C298.316 27.1183 297.816 26.9333 297.141 26.9333C296.466 26.9333 296.02 27.0203 295.803 27.1945C295.585 27.3468 295.476 27.5753 295.476 27.88C295.476 28.2718 295.552 28.7724 295.705 29.3818C295.857 29.9912 295.933 30.7311 295.933 31.6017L295.868 49.0675Z" fill="#131313"/>
<path d="M41.0516 109.659H51.2699L46.2424 90.6591L41.0516 109.659ZM32.6288 130.586C31.0183 130.586 29.6036 130.379 28.3848 129.965C27.166 129.552 26.1431 128.997 25.316 128.3C24.5108 127.582 23.9014 126.766 23.4878 125.852C23.0743 124.916 22.8676 123.926 22.8676 122.881C22.8676 122.359 22.9873 121.989 23.2267 121.771C23.4661 121.532 23.7817 121.347 24.1734 121.216C24.5652 121.086 25.0005 120.966 25.4793 120.857C25.9798 120.748 26.4804 120.552 26.981 120.269C27.4816 119.986 27.9604 119.584 28.4174 119.061C28.8745 118.517 29.2662 117.745 29.5927 116.744L37.6237 92.2588C37.7761 91.8017 37.8849 91.3991 37.9502 91.0508C38.0372 90.7026 38.0808 90.3979 38.0808 90.1367C38.0808 89.4621 37.8958 89.005 37.5258 88.7656C37.1558 88.5262 36.7423 88.3412 36.2852 88.2106C35.8499 88.08 35.4473 87.9277 35.0773 87.7536C34.7073 87.5577 34.5223 87.1768 34.5223 86.6109C34.5223 86.4586 34.5332 86.3389 34.555 86.2518C34.7726 84.7501 35.3711 83.5095 36.3505 82.5301C37.3299 81.529 38.6249 80.7455 40.2354 80.1796C41.8678 79.592 43.783 79.1784 45.9812 78.939C48.1794 78.6996 50.6061 78.5799 53.2614 78.5799C55.5031 78.5799 57.6469 78.667 59.6927 78.8411C61.7603 78.9934 63.6211 79.3417 65.2752 79.8858C66.9293 80.4299 68.3113 81.2025 69.4213 82.2037C70.5313 83.2048 71.2604 84.5542 71.6086 86.2518C71.6522 86.4695 71.6739 86.6218 71.6739 86.7089C71.6739 87.0789 71.5651 87.3618 71.3475 87.5577C71.1516 87.7318 70.9013 87.8733 70.5966 87.9821C70.2919 88.0909 69.9654 88.1888 69.6172 88.2759C69.269 88.3412 68.9425 88.45 68.6378 88.6024C68.3331 88.7547 68.0719 88.9832 67.8543 89.2879C67.6584 89.5709 67.5605 89.9735 67.5605 90.4959C67.5605 90.9529 67.6584 91.5405 67.8543 92.2588L75.0691 116.744C75.3521 117.723 75.7112 118.485 76.1465 119.029C76.5818 119.573 77.0388 119.986 77.5176 120.269C78.0182 120.552 78.5079 120.748 78.9867 120.857C79.4873 120.966 79.9335 121.086 80.3252 121.216C80.717 121.347 81.0326 121.532 81.272 121.771C81.5114 121.989 81.6311 122.359 81.6311 122.881C81.6311 125.602 80.2273 127.571 77.4197 128.79C74.6121 129.987 70.5531 130.586 65.2426 130.586C62.6744 130.586 60.3891 130.444 58.3868 130.161C56.4063 129.857 54.7304 129.399 53.3593 128.79C51.9881 128.159 50.9435 127.354 50.2252 126.374C49.5288 125.395 49.1806 124.23 49.1806 122.881C49.1806 122.424 49.2785 122.087 49.4744 121.869C49.692 121.63 49.9532 121.456 50.2579 121.347C50.5626 121.216 50.8999 121.107 51.2699 121.02C51.6399 120.933 51.9773 120.813 52.282 120.661C52.5867 120.487 52.8369 120.248 53.0328 119.943C53.2505 119.616 53.3593 119.159 53.3593 118.572C53.3593 118.071 53.2831 117.505 53.1308 116.874L52.6084 114.622H39.354L38.5705 116.874C38.2875 117.701 38.1461 118.376 38.1461 118.898C38.1461 119.399 38.244 119.791 38.4399 120.073C38.6575 120.335 38.9187 120.541 39.2234 120.694C39.5281 120.824 39.8654 120.933 40.2354 121.02C40.6054 121.107 40.9428 121.216 41.2475 121.347C41.5522 121.456 41.8025 121.63 41.9983 121.869C42.216 122.108 42.3248 122.446 42.3248 122.881C42.3248 123.926 42.118 124.916 41.7045 125.852C41.291 126.766 40.6707 127.582 39.8437 128.3C39.0384 128.997 38.0264 129.552 36.8076 129.965C35.6105 130.379 34.2176 130.586 32.6288 130.586Z" fill="#131313"/>
<path d="M109.706 118.017C109.706 118.909 109.825 119.606 110.065 120.106C110.304 120.607 110.598 120.988 110.946 121.249C111.294 121.488 111.675 121.662 112.089 121.771C112.524 121.858 112.916 121.956 113.264 122.065C113.612 122.174 113.906 122.337 114.146 122.555C114.385 122.75 114.505 123.088 114.505 123.567C114.505 126.048 113.221 127.843 110.652 128.953C108.084 130.042 104.373 130.586 99.52 130.586C97.1912 130.586 95.1236 130.455 93.3172 130.194C91.5107 129.933 89.9872 129.519 88.7467 128.953C87.5061 128.366 86.5594 127.637 85.9064 126.766C85.2753 125.874 84.9597 124.807 84.9597 123.567C84.9597 123.088 85.0685 122.75 85.2862 122.555C85.5256 122.337 85.8194 122.174 86.1676 122.065C86.5376 121.956 86.9185 121.858 87.3102 121.771C87.7238 121.684 88.1046 121.521 88.4529 121.281C88.8229 121.02 89.1167 120.661 89.3343 120.204C89.5737 119.725 89.6934 119.04 89.6934 118.147V81.4528C89.6934 80.5605 89.5737 79.8858 89.3343 79.4287C89.1167 78.9499 88.8229 78.5908 88.4529 78.3514C88.1046 78.0902 87.7238 77.9161 87.3102 77.8291C86.9185 77.742 86.5376 77.6441 86.1676 77.5352C85.8194 77.4264 85.5256 77.2741 85.2862 77.0782C85.0685 76.8605 84.9597 76.5123 84.9597 76.0335C84.9597 74.7929 85.2753 73.7374 85.9064 72.8668C86.5594 71.9745 87.5061 71.2454 88.7467 70.6795C89.9872 70.0919 91.5107 69.6675 93.3172 69.4063C95.1236 69.1451 97.1912 69.0145 99.52 69.0145C101.871 69.0145 103.72 69.1342 105.07 69.3736C106.419 69.613 107.431 70.0266 108.106 70.6142C108.802 71.1801 109.238 71.9527 109.412 72.9321C109.608 73.9115 109.706 75.1412 109.706 76.6211V118.017Z" fill="#131313"/>
<path d="M144.081 91.5405C144.69 91.04 145.398 90.5394 146.203 90.0388C147.03 89.5382 147.977 89.0921 149.043 88.7003C150.11 88.2868 151.318 87.9603 152.667 87.7209C154.016 87.4597 155.529 87.3292 157.205 87.3292C159.403 87.3292 161.34 87.6447 163.016 88.2759C164.714 88.9071 166.183 89.7668 167.423 90.855C168.686 91.9214 169.741 93.1837 170.59 94.6419C171.439 96.1002 172.113 97.6563 172.614 99.3104C173.136 100.964 173.506 102.673 173.724 104.436C173.942 106.199 174.05 107.94 174.05 109.659C174.05 111.487 173.898 113.294 173.593 115.079C173.31 116.863 172.864 118.561 172.255 120.171C171.667 121.782 170.905 123.273 169.97 124.644C169.034 126.015 167.924 127.201 166.64 128.202C165.356 129.204 163.887 129.987 162.232 130.553C160.6 131.119 158.761 131.402 156.715 131.402C154.822 131.402 153.135 131.239 151.655 130.912C150.197 130.607 148.902 130.216 147.77 129.737C146.66 129.258 145.702 128.736 144.897 128.17C144.114 127.582 143.461 127.027 142.938 126.505C142.634 127.136 142.242 127.713 141.763 128.235C141.284 128.736 140.686 129.16 139.968 129.508C139.249 129.857 138.379 130.129 137.356 130.324C136.355 130.499 135.19 130.586 133.863 130.586C131.512 130.586 129.434 130.455 127.627 130.194C125.821 129.933 124.297 129.519 123.057 128.953C121.816 128.366 120.869 127.637 120.216 126.766C119.585 125.874 119.27 124.807 119.27 123.567C119.27 123.088 119.389 122.75 119.629 122.555C119.868 122.337 120.162 122.174 120.51 122.065C120.859 121.956 121.239 121.858 121.653 121.771C122.066 121.684 122.447 121.521 122.796 121.281C123.144 121.02 123.438 120.661 123.677 120.204C123.916 119.725 124.036 119.04 124.036 118.147V81.4528C124.036 80.5605 123.916 79.8858 123.677 79.4287C123.438 78.9499 123.144 78.5908 122.796 78.3514C122.447 78.0902 122.066 77.9161 121.653 77.8291C121.239 77.742 120.859 77.6441 120.51 77.5352C120.162 77.4264 119.868 77.2741 119.629 77.0782C119.389 76.8605 119.27 76.5123 119.27 76.0335C119.27 74.7929 119.585 73.7374 120.216 72.8668C120.869 71.9745 121.816 71.2454 123.057 70.6795C124.297 70.0919 125.821 69.6675 127.627 69.4063C129.434 69.1451 131.512 69.0145 133.863 69.0145C136.213 69.0145 138.063 69.1342 139.413 69.3736C140.784 69.613 141.818 70.0266 142.514 70.6142C143.21 71.1801 143.657 71.9527 143.852 72.9321C144.048 73.9115 144.146 75.1412 144.146 76.6211L144.081 91.5405ZM147.966 95.6866C147.204 95.6866 146.486 95.8172 145.811 96.0784C145.158 96.3396 144.56 96.6551 144.016 97.0251V118.017C144.016 118.648 144.016 119.268 144.016 119.878C144.016 120.487 143.994 121.075 143.95 121.641C144.56 122.011 145.245 122.348 146.007 122.653C146.769 122.957 147.618 123.11 148.554 123.11C149.772 123.11 150.708 122.903 151.361 122.489C152.036 122.054 152.526 121.325 152.83 120.302C153.135 119.279 153.309 117.919 153.353 116.221C153.418 114.502 153.451 112.358 153.451 109.79C153.451 107.091 153.353 104.839 153.157 103.032C152.961 101.204 152.645 99.7566 152.21 98.6901C151.775 97.6019 151.209 96.8293 150.512 96.3722C149.816 95.9152 148.967 95.6866 147.966 95.6866Z" fill="#131313"/>
<path d="M213.943 100.845C213.943 99.9524 213.823 99.256 213.584 98.7554C213.344 98.2548 213.04 97.8848 212.67 97.6454C212.322 97.3842 211.941 97.2101 211.527 97.1231C211.114 97.0143 210.722 96.9054 210.352 96.7966C210.004 96.6878 209.71 96.5354 209.47 96.3396C209.231 96.1219 209.111 95.7737 209.111 95.2949C209.111 92.8138 210.395 91.0291 212.964 89.9409C215.532 88.8309 219.243 88.2759 224.096 88.2759C225.728 88.2759 227.1 88.4283 228.209 88.733C229.319 89.0377 230.234 89.4621 230.952 90.0062C231.692 90.5503 232.258 91.2032 232.649 91.9649C233.063 92.7267 233.357 93.5755 233.531 94.5114C233.727 95.4255 233.836 96.4049 233.857 97.4495C233.901 98.4942 233.923 99.5824 233.923 100.714V118.213C233.923 119.083 234.031 119.758 234.249 120.237C234.488 120.716 234.782 121.086 235.131 121.347C235.501 121.586 235.881 121.749 236.273 121.836C236.687 121.923 237.068 122.021 237.416 122.13C237.786 122.239 238.08 122.402 238.297 122.62C238.537 122.816 238.656 123.153 238.656 123.632C238.656 126.113 237.394 127.909 234.869 129.019C232.366 130.107 228.775 130.651 224.096 130.651C222.943 130.651 221.92 130.564 221.027 130.39C220.135 130.216 219.351 129.987 218.677 129.704C218.024 129.421 217.458 129.106 216.979 128.757C216.5 128.387 216.098 128.007 215.771 127.615C215.009 126.744 214.531 125.732 214.335 124.579C213.203 125.863 211.865 127.005 210.319 128.007C209.666 128.442 208.926 128.866 208.099 129.28C207.272 129.672 206.369 130.031 205.39 130.357C204.41 130.662 203.344 130.912 202.19 131.108C201.059 131.304 199.851 131.402 198.567 131.402C196.172 131.402 194.105 131.108 192.364 130.52C190.623 129.911 189.143 129.106 187.924 128.105C186.727 127.103 185.758 125.939 185.018 124.611C184.278 123.284 183.702 121.891 183.288 120.433C182.875 118.974 182.592 117.505 182.439 116.025C182.309 114.524 182.243 113.098 182.243 111.749V101.008C182.243 100.094 182.124 99.3866 181.884 98.886C181.645 98.3636 181.34 97.9719 180.97 97.7107C180.6 97.4278 180.208 97.2428 179.795 97.1557C179.381 97.0469 178.99 96.9381 178.62 96.8293C178.25 96.6987 177.945 96.5354 177.706 96.3396C177.466 96.1219 177.346 95.7737 177.346 95.2949C177.346 92.8138 178.63 91.0291 181.199 89.9409C183.767 88.8309 187.478 88.2759 192.331 88.2759C194.486 88.2759 196.205 88.5371 197.489 89.0594C198.773 89.5818 199.753 90.3 200.427 91.2141C201.102 92.1064 201.537 93.1729 201.733 94.4134C201.929 95.654 202.027 96.9925 202.027 98.4289V114.556C202.027 115.906 202.125 117.114 202.321 118.18C202.539 119.225 202.887 120.117 203.366 120.857C203.866 121.597 204.519 122.163 205.324 122.555C206.13 122.925 207.131 123.11 208.328 123.11C209.09 123.11 209.808 122.99 210.482 122.75C211.157 122.511 211.745 122.174 212.245 121.738C212.746 121.303 213.138 120.792 213.421 120.204C213.725 119.595 213.878 118.931 213.878 118.213L213.943 100.845Z" fill="#131313"/>
<path d="M292.554 91.3447C292.924 91.1053 293.403 90.7679 293.991 90.3326C294.6 89.8756 295.492 89.4294 296.668 88.9941C297.843 88.5371 299.399 88.1453 301.336 87.8189C303.273 87.4924 305.765 87.3292 308.812 87.3292C311.097 87.3292 313.089 87.6012 314.786 88.1453C316.484 88.6894 317.931 89.4294 319.128 90.3653C320.347 91.3011 321.348 92.4111 322.132 93.6952C322.915 94.9575 323.536 96.3287 323.993 97.8087C324.45 99.2669 324.765 100.79 324.939 102.379C325.114 103.968 325.201 105.546 325.201 107.113V107.439C325.179 110.029 325.157 112.032 325.135 113.446C325.135 114.839 325.135 115.862 325.135 116.515C325.135 117.168 325.135 117.56 325.135 117.69C325.135 117.799 325.135 117.854 325.135 117.854C325.135 118.768 325.255 119.486 325.494 120.008C325.734 120.509 326.028 120.901 326.376 121.183C326.746 121.445 327.138 121.63 327.551 121.738C327.986 121.826 328.378 121.934 328.726 122.065C329.096 122.174 329.401 122.337 329.641 122.555C329.88 122.75 330 123.088 330 123.567C330 124.807 329.684 125.874 329.053 126.766C328.444 127.637 327.54 128.366 326.343 128.953C325.146 129.519 323.666 129.933 321.903 130.194C320.162 130.455 318.16 130.586 315.896 130.586C313.698 130.586 311.739 130.455 310.02 130.194C308.322 129.933 306.886 129.519 305.711 128.953C304.535 128.366 303.643 127.637 303.034 126.766C302.424 125.874 302.12 124.807 302.12 123.567C302.12 123.088 302.196 122.75 302.348 122.555C302.522 122.337 302.729 122.174 302.968 122.065C303.208 121.956 303.469 121.858 303.752 121.771C304.035 121.684 304.296 121.521 304.535 121.281C304.775 121.02 304.971 120.661 305.123 120.204C305.297 119.725 305.384 119.04 305.384 118.147V104.109C305.384 102.782 305.297 101.596 305.123 100.551C304.971 99.5063 304.71 98.6248 304.34 97.9066C303.97 97.1884 303.469 96.6443 302.838 96.2743C302.228 95.8825 301.456 95.6866 300.52 95.6866C299.083 95.6866 298.039 96.1437 297.386 97.0578C296.755 97.9501 296.439 99.1145 296.439 100.551V117.756C296.439 118.691 296.526 119.421 296.7 119.943C296.874 120.465 297.092 120.868 297.353 121.151C297.636 121.412 297.93 121.597 298.235 121.706C298.561 121.815 298.855 121.934 299.116 122.065C299.399 122.174 299.628 122.337 299.802 122.555C299.976 122.75 300.063 123.088 300.063 123.567C300.063 124.807 299.813 125.874 299.312 126.766C298.833 127.637 298.071 128.366 297.027 128.953C296.004 129.519 294.676 129.933 293.044 130.194C291.433 130.455 289.485 130.586 287.2 130.586C285.002 130.586 283.043 130.455 281.324 130.194C279.626 129.933 278.19 129.519 277.015 128.953C275.839 128.366 274.947 127.637 274.338 126.766C273.728 125.874 273.423 124.807 273.423 123.567C273.423 123.088 273.5 122.75 273.652 122.555C273.826 122.337 274.033 122.174 274.272 122.065C274.512 121.956 274.773 121.858 275.056 121.771C275.36 121.684 275.633 121.521 275.872 121.281C276.111 121.02 276.307 120.661 276.46 120.204C276.634 119.725 276.721 119.04 276.721 118.147V104.109C276.721 101.454 276.394 99.3974 275.741 97.9392C275.11 96.481 273.968 95.7519 272.313 95.7519C271.661 95.7519 271.04 95.8716 270.453 96.111C269.865 96.3504 269.343 96.6987 268.886 97.1557C268.429 97.591 268.069 98.1133 267.808 98.7227C267.547 99.3321 267.417 99.996 267.417 100.714V118.017C267.417 118.909 267.504 119.606 267.678 120.106C267.874 120.607 268.113 120.988 268.396 121.249C268.679 121.488 268.984 121.662 269.31 121.771C269.658 121.858 269.974 121.956 270.257 122.065C270.54 122.174 270.768 122.337 270.942 122.555C271.138 122.75 271.236 123.088 271.236 123.567C271.236 126.048 269.996 127.843 267.514 128.953C265.055 130.042 261.508 130.586 256.872 130.586C254.63 130.586 252.628 130.455 250.865 130.194C249.102 129.933 247.611 129.519 246.392 128.953C245.195 128.366 244.27 127.637 243.617 126.766C242.986 125.874 242.671 124.807 242.671 123.567C242.671 123.088 242.79 122.75 243.03 122.555C243.269 122.337 243.563 122.174 243.911 122.065C244.259 121.956 244.64 121.858 245.054 121.771C245.467 121.684 245.848 121.521 246.196 121.281C246.545 121.02 246.838 120.661 247.078 120.204C247.317 119.725 247.437 119.04 247.437 118.147V100.714C247.437 99.8436 247.317 99.1689 247.078 98.6901C246.838 98.2113 246.545 97.8522 246.196 97.6128C245.848 97.3516 245.467 97.1775 245.054 97.0904C244.64 97.0034 244.259 96.9054 243.911 96.7966C243.563 96.6878 243.269 96.5354 243.03 96.3396C242.79 96.1219 242.671 95.7737 242.671 95.2949C242.671 94.0543 242.986 92.9987 243.617 92.1282C244.248 91.2358 245.163 90.5067 246.36 89.9409C247.578 89.3532 249.058 88.9288 250.799 88.6677C252.541 88.4065 254.51 88.2759 256.708 88.2759C257.71 88.2759 258.613 88.3303 259.418 88.4391C260.223 88.5262 260.931 88.6568 261.54 88.8309C262.171 88.9832 262.715 89.1682 263.172 89.3859C263.63 89.5818 264.021 89.7885 264.348 90.0062C265.109 90.5285 265.643 91.1053 265.947 91.7364C267.014 90.9311 268.298 90.202 269.8 89.5491C271.084 88.9832 272.651 88.4718 274.501 88.0147C276.351 87.5577 278.516 87.3292 280.997 87.3292C283.566 87.3292 285.84 87.6991 287.82 88.4391C289.801 89.1574 291.379 90.1259 292.554 91.3447Z" fill="#131313"/>
</svg>
